<svg width="200" height="200" viewBox="0 0 200 200" fill="none" xmlns="http://www.w3.org/2000/svg">
<path d="M116.992 1.52344H43.5156C36.4062 1.5625 30.6641 7.30469 30.625 14.4141V185.586C30.625 192.695 36.4063 198.438 43.4766 198.438H172.539C179.648 198.438 185.391 192.656 185.43 185.586L185.078 58.4375L116.992 1.52344Z" fill="#EAEAEA"/>
<path d="M172.539 200H43.5156C35.5469 200 29.1016 193.555 29.1016 185.586V14.4141C29.1016 6.44531 35.5469 0 43.5156 0H117.578L186.641 57.7344L186.992 185.586C186.953 193.555 180.508 200 172.539 200ZM43.5156 3.08594C37.2656 3.08594 32.1875 8.16406 32.1875 14.4141V185.586C32.1875 191.836 37.2656 196.914 43.5156 196.914H172.578C178.828 196.914 183.906 191.836 183.906 185.586L183.555 59.1797L116.445 3.08594H43.5156Z" fill="#1565C0"/>
<path d="M116.992 1.52344L116.797 57.1094C116.797 57.1094 116.992 58.4375 118.164 58.4375H185.078L116.992 1.52344Z" fill="#1565C0"/>
<path d="M18.3594 96.4453H148.047C150.977 96.4453 153.359 98.8281 153.359 101.758V159.57C153.359 162.5 150.977 164.883 148.047 164.883H18.3594C15.4297 164.883 13.0469 162.5 13.0469 159.57V101.758C13.0469 98.7891 15.4297 96.4453 18.3594 96.4453Z" fill="#1565C0"/>
<path d="M20.9375 116.602H34.1797C36.7969 116.602 38.9062 116.953 40.5078 117.656C42.0703 118.32 43.4375 119.375 44.4922 120.703C45.5469 122.07 46.3281 123.633 46.7578 125.312C47.2266 127.148 47.4609 129.023 47.4609 130.898C47.4609 133.984 47.1094 136.367 46.4063 138.047C45.7813 139.648 44.7656 141.133 43.5156 142.305C42.3828 143.398 41.0156 144.18 39.4922 144.609C37.7734 145.117 35.9766 145.352 34.1797 145.391H20.9375V116.602ZM29.8438 123.125V138.867H32.0313C33.9063 138.867 35.2344 138.672 36.0156 138.242C36.875 137.773 37.5 136.992 37.8516 136.094C38.2813 135.078 38.5156 133.398 38.5156 131.094C38.5156 128.047 38.0078 125.938 37.0313 124.844C36.0547 123.711 34.375 123.164 32.0703 123.164L29.8438 123.125Z" fill="white"/>
<path d="M51.0156 131.016C51.0156 126.328 52.3437 122.656 54.9609 120.039C57.5781 117.422 61.2109 116.094 65.8984 116.094C70.7031 116.094 74.375 117.383 76.9922 119.961C79.6094 122.539 80.8984 126.133 80.8984 130.781C80.8984 134.141 80.3125 136.914 79.1797 139.062C78.0859 141.172 76.3672 142.93 74.2578 144.102C72.1094 145.312 69.4531 145.898 66.25 145.898C63.0078 145.898 60.3125 145.391 58.2031 144.336C56.0156 143.242 54.2187 141.523 53.0078 139.414C51.6797 137.187 51.0156 134.375 51.0156 131.016ZM59.9219 131.055C59.9219 133.945 60.4687 136.055 61.5234 137.305C62.5781 138.555 64.0625 139.219 65.9375 139.219C67.8516 139.219 69.3359 138.594 70.3906 137.344C71.4453 136.094 71.9531 133.867 71.9531 130.625C71.9531 127.93 71.4062 125.938 70.3125 124.688C69.2187 123.437 67.7344 122.812 65.8594 122.812C64.2188 122.734 62.6172 123.437 61.5234 124.727C60.4687 126.016 59.9219 128.125 59.9219 131.055Z" fill="white"/>
<path d="M104.844 133.594L112.656 135.937C112.227 137.93 111.367 139.766 110.195 141.406C109.102 142.852 107.656 143.984 106.016 144.727C104.336 145.469 102.227 145.859 99.6484 145.859C96.5234 145.859 93.9453 145.391 91.9922 144.492C90 143.594 88.2812 141.992 86.875 139.687C85.4297 137.383 84.7266 134.453 84.7266 130.898C84.7266 126.133 85.9766 122.461 88.5156 119.922C91.0547 117.383 94.6484 116.094 99.2578 116.094C102.891 116.094 105.742 116.836 107.813 118.281C109.883 119.766 111.445 121.992 112.461 125.039L104.609 126.797C104.414 126.094 104.141 125.469 103.75 124.883C103.281 124.219 102.656 123.672 101.914 123.32C99.4141 122.109 96.4453 122.93 94.8438 125.195C94.0234 126.406 93.6328 128.281 93.6328 130.859C93.6328 134.062 94.1016 136.25 95.0781 137.422C96.0547 138.594 97.4219 139.18 99.1797 139.18C100.898 139.18 102.187 138.711 103.047 137.734C103.906 136.758 104.453 135.43 104.844 133.594Z" fill="white"/>
<path d="M115 116.602H124.805L129.922 125.469L134.883 116.602H144.609L135.625 130.547L145.43 145.391H135.469L129.766 136.133L124.063 145.391H114.102L124.023 130.391L115 116.602Z" fill="white"/>
</svg>
