<svg width="200" height="200" viewBox="0 0 200 200" fill="none" xmlns="http://www.w3.org/2000/svg">
<path d="M122.263 7.8125H43.75C40.4348 7.8125 37.2554 9.12946 34.9112 11.4737C32.567 13.8179 31.25 16.9973 31.25 20.3125V176.562C31.25 179.878 32.567 183.057 34.9112 185.401C37.2554 187.746 40.4348 189.062 43.75 189.062H156.25C159.565 189.062 162.745 187.746 165.089 185.401C167.433 183.057 168.75 179.878 168.75 176.562V54.3L122.263 7.8125Z" fill="#EDEDED"/>
<path d="M167.834 53.3844L123.178 8.72819C122.741 8.29129 122.184 7.99377 121.578 7.87324C120.972 7.75272 120.344 7.8146 119.773 8.05107C119.202 8.28754 118.714 8.68798 118.371 9.20176C118.027 9.71554 117.844 10.3196 117.844 10.9376V46.2188C117.844 49.534 119.161 52.7134 121.505 55.0577C123.849 57.4019 127.029 58.7188 130.344 58.7188H165.625C166.243 58.7187 166.847 58.5353 167.361 58.1919C167.875 57.8486 168.275 57.3606 168.512 56.7896C168.748 56.2187 168.81 55.5904 168.689 54.9843C168.569 54.3782 168.271 53.8215 167.834 53.3844Z" fill="#C6C6C6"/>
<path d="M165.625 135.603H94.0188L86.5188 127.025C85.9322 126.355 85.2091 125.817 84.398 125.449C83.5868 125.081 82.7064 124.891 81.8156 124.891H34.375C32.7174 124.891 31.1277 125.549 29.9556 126.721C28.7835 127.893 28.125 129.483 28.125 131.141V176.562C28.13 180.705 29.7778 184.676 32.7069 187.606C35.6361 190.535 39.6075 192.183 43.75 192.187H156.25C160.392 192.183 164.364 190.535 167.293 187.606C170.222 184.676 171.87 180.705 171.875 176.562V141.853C171.875 140.196 171.217 138.606 170.044 137.434C168.872 136.262 167.283 135.603 165.625 135.603Z" fill="#0461A0"/>
<path d="M50 53.3157H105.344V59.5657H50V53.3157Z" fill="#C6C6C6"/>
<path d="M94.6562 94.5251H150V100.775H94.6562V94.5251Z" fill="#C6C6C6"/>
<path d="M50 67.0469H150V73.2969H50V67.0469Z" fill="#C6C6C6"/>
<path d="M50 80.7844H150V87.0344H50V80.7844Z" fill="#C6C6C6"/>
<path d="M76.8752 157.572L71.4346 176.584H66.9064L61.5439 157.609V176.584H56.2314V148.684H64.2189L69.1689 166.609L74.1689 148.684H82.2283V176.584H76.8752V157.572Z" fill="white"/>
<path d="M97.338 176.959C95.439 177.018 93.5531 176.626 91.8348 175.816C90.3814 175.088 89.1282 174.015 88.1848 172.691C87.2189 171.312 86.5321 169.758 86.163 168.116C85.3376 164.5 85.3376 160.744 86.163 157.128C86.5321 155.486 87.2189 153.932 88.1848 152.553C89.1282 151.229 90.3814 150.156 91.8348 149.428C93.5681 148.674 95.4382 148.284 97.3286 148.284C99.219 148.284 101.089 148.674 102.822 149.428C104.269 150.159 105.516 151.231 106.454 152.553C107.42 153.932 108.108 155.486 108.479 157.128C108.9 158.929 109.11 160.773 109.104 162.622C109.34 166.362 108.283 170.069 106.11 173.122C105.055 174.41 103.711 175.429 102.186 176.096C100.661 176.763 98.9994 177.059 97.338 176.959ZM97.338 153.409C96.4661 153.344 95.5932 153.522 94.816 153.922C94.0388 154.323 93.3877 154.93 92.9348 155.678C91.8511 157.83 91.3583 160.23 91.5067 162.634C91.3583 165.039 91.8511 167.439 92.9348 169.591C93.4311 170.292 94.0882 170.863 94.8511 171.258C95.614 171.653 96.4603 171.859 97.3192 171.859C98.1781 171.859 99.0245 171.653 99.7873 171.258C100.55 170.863 101.207 170.292 101.704 169.591C102.787 167.439 103.277 165.038 103.125 162.634C103.275 160.23 102.782 157.829 101.697 155.678C101.252 154.934 100.608 154.327 99.8388 153.927C99.0691 153.526 98.2034 153.347 97.338 153.409Z" fill="white"/>
<path d="M122.5 176.584H112.356V148.684H122.763C123.962 148.682 125.16 148.795 126.338 149.022C127.431 149.221 128.478 149.622 129.425 150.203C130.324 150.763 131.064 151.544 131.575 152.472C132.148 153.57 132.426 154.797 132.381 156.034C132.397 157.24 132.087 158.428 131.485 159.472C130.867 160.514 129.955 161.349 128.863 161.872C130.195 162.371 131.327 163.293 132.085 164.497C132.717 165.778 133.025 167.194 132.981 168.622C133.079 169.782 132.879 170.947 132.401 172.008C131.923 173.07 131.183 173.992 130.25 174.687C127.927 176.111 125.218 176.775 122.5 176.584ZM122.931 153.772H118.319V159.397H123.081C123.504 159.4 123.924 159.344 124.331 159.231C124.708 159.133 125.064 158.967 125.381 158.741C125.68 158.52 125.93 158.24 126.116 157.919C126.31 157.554 126.405 157.144 126.394 156.731C126.424 156.325 126.362 155.918 126.213 155.539C126.064 155.16 125.831 154.82 125.531 154.544C124.788 153.979 123.862 153.708 122.931 153.784V153.772ZM123.066 164.497H118.319V171.472H123.125C124.156 171.546 125.18 171.264 126.028 170.675C126.388 170.317 126.663 169.882 126.833 169.404C127.002 168.925 127.061 168.414 127.006 167.909C127.049 167.434 126.988 166.956 126.826 166.507C126.664 166.058 126.405 165.651 126.069 165.312C125.187 164.715 124.129 164.432 123.066 164.509V164.497Z" fill="white"/>
<path d="M137.144 148.684H143.106V176.584H137.144V148.684Z" fill="white"/>
</svg>
