<svg width="200" height="200" viewBox="0 0 200 200" fill="none" xmlns="http://www.w3.org/2000/svg">
<path d="M150.781 6.25H142.969H60.9375C52.3219 6.25 45.3125 13.2594 45.3125 21.875V68.75L41.4062 80.4688L45.3125 92.1875V178.125C45.3125 186.741 52.3219 193.75 60.9375 193.75H170.312C178.928 193.75 185.938 186.741 185.938 178.125V49.2188V41.4062L158.594 33.5938L150.781 6.25Z" fill="#FFF5F5"/>
<path d="M150.781 41.4062H185.938L150.781 6.25V41.4062Z" fill="#ECE6F2"/>
<path d="M100 41.4062H68.75C66.5926 41.4062 64.8438 39.6574 64.8438 37.5C64.8438 35.3426 66.5926 33.5938 68.75 33.5938H100C102.157 33.5938 103.906 35.3426 103.906 37.5C103.906 39.6574 102.157 41.4062 100 41.4062Z" fill="#D3CBE4"/>
<path d="M131.25 57.0312H68.75C66.5926 57.0312 64.8438 55.2824 64.8438 53.125C64.8438 50.9676 66.5926 49.2188 68.75 49.2188H131.25C133.407 49.2188 135.156 50.9676 135.156 53.125C135.156 55.2824 133.407 57.0312 131.25 57.0312Z" fill="#D3CBE4"/>
<path d="M131.25 72.6562H68.75C66.5926 72.6562 64.8438 70.9074 64.8438 68.75C64.8438 66.5926 66.5926 64.8438 68.75 64.8438H131.25C133.407 64.8438 135.156 66.5926 135.156 68.75C135.156 70.9074 133.407 72.6562 131.25 72.6562Z" fill="#D3CBE4"/>
<path d="M152.734 92.1875H45.3125L14.0625 80.4688V145.182C14.0625 156.885 23.5836 166.406 35.2867 166.406H152.735C160.273 166.406 166.407 160.273 166.407 152.734V105.859C166.406 98.3207 160.273 92.1875 152.734 92.1875Z" fill="#20CA78"/>
<path d="M45.3125 92.1875H25.7812C19.309 92.1875 14.0625 86.941 14.0625 80.4688C14.0625 73.9965 19.309 68.75 25.7812 68.75H45.3125V92.1875Z" fill="#19A78E"/>
<path d="M67.0103 143.624L54.3071 135.155H55.0778C62.6165 135.155 68.7497 129.022 68.7497 121.483C68.7497 113.944 62.6165 107.811 55.0778 107.811H41.406C39.2485 107.811 37.4997 109.56 37.4997 111.718V131.249C37.4982 132.838 37.4997 125.503 37.4997 146.874C37.4997 149.031 39.2485 150.78 41.406 150.78C43.5634 150.78 45.3122 149.031 45.3122 146.874V138.548L62.6767 150.124C63.3427 150.568 64.095 150.781 64.84 150.781C66.1025 150.781 67.3411 150.17 68.0939 149.041C69.2903 147.246 68.8052 144.82 67.0103 143.624ZM45.3122 115.624H55.0778C58.3087 115.624 60.9372 118.252 60.9372 121.483C60.9372 124.714 58.3087 127.343 55.0778 127.343H45.3122V115.624Z" fill="#FBF3F3"/>
<path d="M103.906 107.811H80.4688C78.3113 107.811 76.5625 109.56 76.5625 111.718C76.5625 113.875 78.3113 115.624 80.4688 115.624H88.2812V146.874C88.2812 149.031 90.0301 150.78 92.1875 150.78C94.3449 150.78 96.0938 149.031 96.0938 146.874V115.624H103.906C106.064 115.624 107.812 113.875 107.812 111.718C107.812 109.56 106.064 107.811 103.906 107.811Z" fill="#FBF3F3"/>
<path d="M139.062 107.811H119.531C117.374 107.811 115.625 109.56 115.625 111.718V146.874C115.625 149.031 117.374 150.78 119.531 150.78C121.688 150.78 123.438 149.031 123.438 146.874V131.249H135.156C137.313 131.249 139.062 129.5 139.062 127.343C139.062 125.185 137.313 123.436 135.156 123.436H123.438V115.624H139.062C141.22 115.624 142.969 113.875 142.969 111.718C142.969 109.56 141.22 107.811 139.062 107.811Z" fill="#FBF3F3"/>
</svg>
