<svg width="200" height="200" viewBox="0 0 200 200" fill="none" xmlns="http://www.w3.org/2000/svg">
<path d="M50 0C43.125 0 37.5 5.625 37.5 12.5V187.5C37.5 194.375 43.125 200 50 200H175C181.875 200 187.5 194.375 187.5 187.5V50L137.5 0H50Z" fill="#E2E5E7"/>
<path d="M150 50H187.5L137.5 0V37.5C137.5 44.375 143.125 50 150 50Z" fill="#B0B7BD"/>
<path d="M187.5 87.5L150 50H187.5V87.5Z" fill="#CAD1D8"/>
<path d="M162.5 162.5C162.5 165.938 159.688 168.75 156.25 168.75H18.75C15.3125 168.75 12.5 165.938 12.5 162.5V100C12.5 96.5625 15.3125 93.75 18.75 93.75H156.25C159.688 93.75 162.5 96.5625 162.5 100V162.5Z" fill="#F15642"/>
<path d="M39.7441 118.419C39.7441 116.769 41.0441 114.969 43.1379 114.969H54.6816C61.1816 114.969 67.0316 119.319 67.0316 127.656C67.0316 135.556 61.1816 139.956 54.6816 139.956H46.3379V146.556C46.3379 148.756 44.9379 150 43.1379 150C41.4879 150 39.7441 148.756 39.7441 146.556V118.419ZM46.3379 121.263V133.712H54.6816C58.0316 133.712 60.6816 130.756 60.6816 127.656C60.6816 124.162 58.0316 121.263 54.6816 121.263H46.3379Z" fill="white"/>
<path d="M76.8191 150C75.1691 150 73.3691 149.1 73.3691 146.906V118.519C73.3691 116.725 75.1691 115.419 76.8191 115.419H88.2629C111.1 115.419 110.6 150 88.7129 150H76.8191ZM79.9691 121.519V143.906H88.2629C101.757 143.906 102.357 121.519 88.2629 121.519H79.9691Z" fill="white"/>
<path d="M118.701 121.919V129.863H131.444C133.244 129.863 135.044 131.663 135.044 133.406C135.044 135.056 133.244 136.406 131.444 136.406H118.701V146.9C118.701 148.65 117.457 149.994 115.707 149.994C113.507 149.994 112.163 148.65 112.163 146.9V118.513C112.163 116.719 113.513 115.413 115.707 115.413H133.251C135.451 115.413 136.751 116.719 136.751 118.513C136.751 120.113 135.451 121.913 133.251 121.913H118.701V121.919Z" fill="white"/>
<path d="M156.25 168.75H37.5V175H156.25C159.688 175 162.5 172.188 162.5 168.75V162.5C162.5 165.938 159.688 168.75 156.25 168.75Z" fill="#CAD1D8"/>
</svg>
