<svg width="200" height="200" viewBox="0 0 200 200" fill="none" xmlns="http://www.w3.org/2000/svg">
<path d="M158.13 32.2711L146.729 7.69287H53.3071C48.1783 7.69287 44.0205 11.8507 44.0205 16.9795V183.021C44.0205 188.15 48.1783 192.308 53.3071 192.308H149.961L155.344 189.336L160.562 192.307H164.306C167.894 192.307 171.004 190.271 172.55 187.293H179.67V43.3159L158.13 32.2711Z" fill="#60B7FF"/>
<path d="M173.594 40.1992V183.021C173.594 188.149 169.436 192.307 164.308 192.307H175.89C181.019 192.307 185.177 188.149 185.177 183.021C185.177 182.385 185.177 46.6139 185.177 46.1383L173.594 40.1992Z" fill="#26A6FE"/>
<path d="M122.272 103.733H20.3933C17.3161 103.733 14.8213 101.238 14.8213 98.1608V53.6254C14.8213 50.5483 17.3158 48.0535 20.3933 48.0535H122.272C125.349 48.0535 127.844 50.5479 127.844 53.6254V98.1608C127.843 101.238 125.349 103.733 122.272 103.733Z" fill="#FDB441"/>
<path d="M111.056 126.617H68.3385C66.7996 126.617 65.5527 125.369 65.5527 123.831C65.5527 122.292 66.8 121.045 68.3385 121.045H111.056C112.595 121.045 113.842 122.292 113.842 123.831C113.842 125.369 112.595 126.617 111.056 126.617Z" fill="#EAF6FF"/>
<path d="M111.056 145.57H68.3385C66.7996 145.57 65.5527 144.322 65.5527 142.784C65.5527 141.245 66.8 139.998 68.3385 139.998H111.056C112.595 139.998 113.842 141.245 113.842 142.784C113.842 144.322 112.595 145.57 111.056 145.57Z" fill="#EAF6FF"/>
<path d="M111.056 164.523H68.3385C66.7996 164.523 65.5527 163.276 65.5527 161.737C65.5527 160.198 66.8 158.951 68.3385 158.951H111.056C112.595 158.951 113.842 160.198 113.842 161.737C113.842 163.275 112.595 164.523 111.056 164.523Z" fill="#EAF6FF"/>
<path d="M155.342 106.518H147.459C145.92 106.518 144.673 105.271 144.673 103.733C144.673 102.194 145.92 100.947 147.459 100.947H155.342C156.88 100.947 158.127 102.194 158.127 103.733C158.127 105.271 156.88 106.518 155.342 106.518Z" fill="#0055A3"/>
<path d="M155.342 119.535H147.459C145.92 119.535 144.673 118.288 144.673 116.75C144.673 115.211 145.92 113.964 147.459 113.964H155.342C156.88 113.964 158.127 115.211 158.127 116.75C158.127 118.288 156.88 119.535 155.342 119.535Z" fill="#0055A3"/>
<path d="M155.342 132.553H147.459C145.92 132.553 144.673 131.305 144.673 129.767C144.673 128.228 145.92 126.981 147.459 126.981H155.342C156.88 126.981 158.127 128.228 158.127 129.767C158.127 131.305 156.88 132.553 155.342 132.553Z" fill="#0055A3"/>
<path d="M155.342 145.57H147.459C145.92 145.57 144.673 144.322 144.673 142.784C144.673 141.245 145.92 139.998 147.459 139.998H155.342C156.88 139.998 158.127 141.245 158.127 142.784C158.127 144.322 156.88 145.57 155.342 145.57Z" fill="#0055A3"/>
<path d="M155.342 158.587H147.459C145.92 158.587 144.673 157.34 144.673 155.801C144.673 154.262 145.92 153.015 147.459 153.015H155.342C156.88 153.015 158.127 154.262 158.127 155.801C158.127 157.339 156.88 158.587 155.342 158.587Z" fill="#0055A3"/>
<path d="M163.228 99.8143H155.345C153.806 99.8143 152.56 98.5671 152.56 97.0285C152.56 95.4899 153.807 94.2427 155.345 94.2427H163.228C164.767 94.2427 166.014 95.4899 166.014 97.0285C166.014 98.5671 164.767 99.8143 163.228 99.8143Z" fill="#0055A3"/>
<path d="M163.228 112.831H155.345C153.806 112.831 152.56 111.584 152.56 110.046C152.56 108.507 153.807 107.26 155.345 107.26H163.228C164.767 107.26 166.014 108.507 166.014 110.046C166.014 111.584 164.767 112.831 163.228 112.831Z" fill="#0055A3"/>
<path d="M163.228 125.848H155.345C153.806 125.848 152.56 124.601 152.56 123.062C152.56 121.524 153.807 120.276 155.345 120.276H163.228C164.767 120.276 166.014 121.524 166.014 123.062C166.014 124.601 164.767 125.848 163.228 125.848Z" fill="#0055A3"/>
<path d="M163.228 138.865H155.345C153.806 138.865 152.56 137.618 152.56 136.08C152.56 134.541 153.807 133.294 155.345 133.294H163.228C164.767 133.294 166.014 134.541 166.014 136.08C166.014 137.618 164.767 138.865 163.228 138.865Z" fill="#0055A3"/>
<path d="M163.228 151.882H155.345C153.806 151.882 152.56 150.635 152.56 149.096C152.56 147.558 153.807 146.31 155.345 146.31H163.228C164.767 146.31 166.014 147.558 166.014 149.096C166.014 150.635 164.767 151.882 163.228 151.882Z" fill="#0055A3"/>
<path d="M73.11 60.2527C71.5711 60.2527 70.3242 61.4999 70.3242 63.0385V87.5482C70.3242 89.0868 71.5715 90.3341 73.11 90.3341C74.649 90.3341 75.8958 89.0865 75.8958 87.5482V63.0385C75.8958 61.4996 74.6486 60.2527 73.11 60.2527Z" fill="#EAF6FF"/>
<path d="M54.1552 84.948H42.9449L56.1088 64.7449C56.6666 63.8886 56.711 62.7953 56.2238 61.8964C55.7367 60.9978 54.7967 60.4382 53.7745 60.4382H38.3072C36.7683 60.4382 35.5214 61.6855 35.5214 63.224C35.5214 64.7626 36.7686 66.0098 38.3072 66.0098H48.6341L35.4702 86.2125C34.9124 87.0689 34.868 88.1622 35.3552 89.0607C35.8423 89.9593 36.7823 90.5192 37.8046 90.5192H54.1552C55.6942 90.5192 56.941 89.2716 56.941 87.7334C56.9414 86.1949 55.6942 84.948 54.1552 84.948Z" fill="#EAF6FF"/>
<path d="M98.8865 60.4382H92.0616C91.159 60.4382 90.2273 60.9795 90.0885 61.2575C89.5638 61.7821 89.2754 62.5097 89.2754 63.2244V87.7342C89.2754 89.2727 90.5226 90.52 92.0612 90.52C93.6001 90.52 94.847 89.2724 94.847 87.7342V79.8581C96.2897 79.8505 97.9516 79.843 98.8858 79.843C104.31 79.843 108.724 75.4905 108.724 70.1406C108.724 64.7907 104.311 60.4382 98.8865 60.4382ZM98.8865 74.2713C97.9591 74.2713 96.3171 74.2786 94.8795 74.2861C94.8571 69.7285 94.8715 71.5941 94.856 66.0098H98.8865C101.199 66.0098 103.152 67.9014 103.152 70.1406C103.152 72.3798 101.199 74.2713 98.8865 74.2713Z" fill="#EAF6FF"/>
<path d="M156.016 46.1389H185.175L146.729 7.69287V36.8522C146.729 41.9811 150.887 46.1389 156.016 46.1389Z" fill="#FEC165"/>
<path d="M155.346 178.563C153.807 178.563 152.561 177.316 152.561 175.778V87.734C152.561 86.1955 153.808 84.9482 155.346 84.9482C156.885 84.9482 158.132 86.1955 158.132 87.734V175.778C158.132 177.316 156.885 178.563 155.346 178.563Z" fill="#FEC165"/>
<path d="M159.25 167.791H151.281C150.298 167.791 149.485 168.555 149.422 169.536L148.106 190.328C148.039 191.4 148.89 192.308 149.965 192.308H160.566C161.641 192.308 162.492 191.4 162.424 190.328L161.108 169.536C161.046 168.555 160.233 167.791 159.25 167.791Z" fill="#0055A3"/>
</svg>
