<svg width="200" height="200" viewBox="0 0 200 200" fill="none" xmlns="http://www.w3.org/2000/svg">
<path d="M193.75 168.751H106.25C102.8 168.751 100 165.964 100 162.501C100 159.039 100 40.9515 100 37.5015C100 34.0515 102.8 31.2515 106.25 31.2515H193.75C197.2 31.2515 200 34.0515 200 37.5015V162.501C200 165.964 197.2 168.751 193.75 168.751Z" fill="#ECEFF1"/>
<path d="M168.75 68.7515H106.25C102.8 68.7515 100 65.964 100 62.5015C100 59.039 102.8 56.2515 106.25 56.2515H168.75C172.2 56.2515 175 59.0515 175 62.5015C175 65.9515 172.2 68.7515 168.75 68.7515Z" fill="#1976D2"/>
<path d="M168.75 93.7515H106.25C102.8 93.7515 100 90.964 100 87.5015C100 84.039 102.8 81.2515 106.25 81.2515H168.75C172.2 81.2515 175 84.0515 175 87.5015C175 90.9515 172.2 93.7515 168.75 93.7515Z" fill="#1976D2"/>
<path d="M168.75 118.751H106.25C102.8 118.751 100 115.964 100 112.501C100 109.039 102.8 106.251 106.25 106.251H168.75C172.2 106.251 175 109.051 175 112.501C175 115.951 172.2 118.751 168.75 118.751Z" fill="#1976D2"/>
<path d="M168.75 143.751H106.25C102.8 143.751 100 140.964 100 137.501C100 134.039 102.8 131.251 106.25 131.251H168.75C172.2 131.251 175 134.051 175 137.501C175 140.951 172.2 143.751 168.75 143.751Z" fill="#1976D2"/>
<path d="M110.238 7.70161C108.813 6.50161 106.9 6.00161 105.1 6.36411L5.1 25.1141C2.15 25.6641 0 28.2516 0 31.2516V168.752C0 171.752 2.1375 174.339 5.1 174.889L105.1 193.639C105.487 193.714 105.863 193.752 106.25 193.752C107.7 193.752 109.113 193.252 110.238 192.314C111.675 191.127 112.5 189.364 112.5 187.502V12.5016C112.5 10.6391 111.675 8.88911 110.238 7.70161Z" fill="#1565C0"/>
<path d="M81.2125 131.952C80.8875 134.814 78.6375 137.102 75.775 137.452C75.5125 137.489 75.2625 137.502 75 137.502C72.425 137.502 70.075 135.902 69.15 133.452L56.25 99.0516L43.35 133.452C42.35 136.127 39.725 137.764 36.825 137.464C33.9875 137.164 31.7125 134.964 31.3125 132.127L25.0625 88.3766C24.575 84.9766 26.95 81.8016 30.3625 81.3141C33.7875 80.8141 36.95 83.2016 37.4375 86.6141L40.225 106.164L50.3875 79.0516C52.2125 74.1766 60.2625 74.1766 62.1 79.0516L71.675 104.577L75.0375 74.3016C75.425 70.8766 78.6 68.4141 81.9375 68.7766C85.375 69.1766 87.8375 72.2641 87.4625 75.6891L81.2125 131.952Z" fill="#FAFAFA"/>
</svg>
