<svg width="200" height="200" viewBox="0 0 200 200" fill="none" xmlns="http://www.w3.org/2000/svg">
<path d="M157.115 197.431H42.8856C37.5394 197.431 32.4121 195.307 28.6317 191.527C24.8513 187.746 22.7275 182.619 22.7275 177.273V22.7274C22.7275 17.3812 24.8513 12.2539 28.6317 8.47351C32.4121 4.69313 37.5394 2.56934 42.8856 2.56934H136.957L177.273 42.8855V177.273C177.273 182.619 175.149 187.746 171.369 191.527C167.588 195.307 162.461 197.431 157.115 197.431Z" fill="#CFD2FC"/>
<path d="M22.7275 143.676H177.273V177.273C177.273 182.619 175.149 187.746 171.369 191.527C167.588 195.307 162.461 197.431 157.115 197.431H42.8856C37.5394 197.431 32.4121 195.307 28.6317 191.527C24.8513 187.746 22.7275 182.619 22.7275 177.273V143.676Z" fill="#5153FF"/>
<path d="M177.273 42.8855H157.115C151.769 42.8855 146.642 40.7617 142.861 36.9814C139.081 33.201 136.957 28.0737 136.957 22.7274V2.56934L177.273 42.8855Z" fill="#8690FA"/>
<path d="M150.395 79.8422H49.6048C48.7138 79.8422 47.8592 79.4882 47.2291 78.8581C46.5991 78.2281 46.2451 77.3735 46.2451 76.4825C46.2451 75.5914 46.5991 74.7369 47.2291 74.1068C47.8592 73.4768 48.7138 73.1228 49.6048 73.1228H150.395C151.286 73.1228 152.141 73.4768 152.771 74.1068C153.401 74.7369 153.755 75.5914 153.755 76.4825C153.755 77.3735 153.401 78.2281 152.771 78.8581C152.141 79.4882 151.286 79.8422 150.395 79.8422Z" fill="#8690FA"/>
<path d="M150.395 93.2809H49.6048C48.7138 93.2809 47.8592 92.9269 47.2291 92.2969C46.5991 91.6668 46.2451 90.8123 46.2451 89.9212C46.2451 89.0302 46.5991 88.1756 47.2291 87.5455C47.8592 86.9155 48.7138 86.5615 49.6048 86.5615H150.395C151.286 86.5615 152.141 86.9155 152.771 87.5455C153.401 88.1756 153.755 89.0302 153.755 89.9212C153.755 90.8123 153.401 91.6668 152.771 92.2969C152.141 92.9269 151.286 93.2809 150.395 93.2809Z" fill="#8690FA"/>
<path d="M150.395 106.72H49.6048C48.7138 106.72 47.8592 106.366 47.2291 105.736C46.5991 105.106 46.2451 104.251 46.2451 103.36C46.2451 102.469 46.5991 101.614 47.2291 100.984C47.8592 100.354 48.7138 100 49.6048 100H150.395C151.286 100 152.141 100.354 152.771 100.984C153.401 101.614 153.755 102.469 153.755 103.36C153.755 104.251 153.401 105.106 152.771 105.736C152.141 106.366 151.286 106.72 150.395 106.72Z" fill="#8690FA"/>
<path d="M150.395 66.4034H49.6048C48.7138 66.4034 47.8592 66.0495 47.2291 65.4194C46.5991 64.7894 46.2451 63.9348 46.2451 63.0438C46.2451 62.1527 46.5991 61.2982 47.2291 60.6681C47.8592 60.038 48.7138 59.6841 49.6048 59.6841H150.395C151.286 59.6841 152.141 60.038 152.771 60.6681C153.401 61.2982 153.755 62.1527 153.755 63.0438C153.755 63.9348 153.401 64.7894 152.771 65.4194C152.141 66.0495 151.286 66.4034 150.395 66.4034Z" fill="#8690FA"/>
<path d="M130.237 120.158H49.6048C48.7138 120.158 47.8592 119.804 47.2291 119.174C46.5991 118.544 46.2451 117.69 46.2451 116.799C46.2451 115.908 46.5991 115.053 47.2291 114.423C47.8592 113.793 48.7138 113.439 49.6048 113.439H130.237C131.128 113.439 131.983 113.793 132.613 114.423C133.243 115.053 133.597 115.908 133.597 116.799C133.597 117.69 133.243 118.544 132.613 119.174C131.983 119.804 131.128 120.158 130.237 120.158Z" fill="#8690FA"/>
<path d="M79.842 52.9647H49.6048C48.7138 52.9647 47.8592 52.6108 47.2291 51.9807C46.5991 51.3506 46.2451 50.4961 46.2451 49.605C46.2451 48.714 46.5991 47.8595 47.2291 47.2294C47.8592 46.5993 48.7138 46.2454 49.6048 46.2454H79.842C80.733 46.2454 81.5875 46.5993 82.2176 47.2294C82.8477 47.8595 83.2016 48.714 83.2016 49.605C83.2016 50.4961 82.8477 51.3506 82.2176 51.9807C81.5875 52.6108 80.733 52.9647 79.842 52.9647Z" fill="#8690FA"/>
<path d="M79.8424 153.755H66.4036C65.5126 153.755 64.658 154.109 64.028 154.739C63.3979 155.369 63.0439 156.224 63.0439 157.115C63.0439 158.006 63.3979 158.86 64.028 159.49C64.658 160.121 65.5126 160.474 66.4036 160.474H69.7633V183.992C69.7633 184.883 70.1173 185.738 70.7473 186.368C71.3774 186.998 72.232 187.352 73.123 187.352C74.014 187.352 74.8686 186.998 75.4987 186.368C76.1287 185.738 76.4827 184.883 76.4827 183.992V160.474H79.8424C80.7334 160.474 81.588 160.121 82.218 159.49C82.8481 158.86 83.202 158.006 83.202 157.115C83.202 156.224 82.8481 155.369 82.218 154.739C81.588 154.109 80.7334 153.755 79.8424 153.755Z" fill="white"/>
<path d="M133.597 153.755H120.159C119.267 153.755 118.413 154.109 117.783 154.739C117.153 155.369 116.799 156.224 116.799 157.115C116.799 158.006 117.153 158.86 117.783 159.49C118.413 160.121 119.267 160.474 120.159 160.474H123.518V183.992C123.518 184.883 123.872 185.738 124.502 186.368C125.132 186.998 125.987 187.352 126.878 187.352C127.769 187.352 128.623 186.998 129.254 186.368C129.884 185.738 130.238 184.883 130.238 183.992V160.474H133.597C134.488 160.474 135.343 160.121 135.973 159.49C136.603 158.86 136.957 158.006 136.957 157.115C136.957 156.224 136.603 155.369 135.973 154.739C135.343 154.109 134.488 153.755 133.597 153.755Z" fill="white"/>
<path d="M108.224 154.11C107.427 153.711 106.504 153.646 105.659 153.927C104.814 154.209 104.115 154.815 103.716 155.612L100.002 163.041L96.2874 155.612C95.8847 154.822 95.1862 154.224 94.3441 153.947C93.502 153.67 92.5845 153.737 91.7916 154.133C90.9987 154.53 90.3946 155.224 90.1111 156.063C89.8275 156.903 89.8874 157.821 90.2777 158.617L96.2458 170.553L90.2777 182.49C90.0763 182.885 89.9551 183.316 89.921 183.758C89.887 184.2 89.9408 184.644 90.0794 185.065C90.2179 185.487 90.4385 185.876 90.7283 186.212C91.0182 186.547 91.3716 186.822 91.7682 187.02C92.1647 187.219 92.5967 187.337 93.039 187.367C93.4813 187.398 93.9254 187.341 94.3455 187.199C94.7656 187.057 95.1535 186.833 95.4867 186.541C95.82 186.248 96.0921 185.893 96.2874 185.495L100.002 178.066L103.716 185.495C103.912 185.893 104.184 186.248 104.517 186.541C104.85 186.833 105.238 187.057 105.658 187.199C106.078 187.341 106.522 187.398 106.965 187.367C107.407 187.337 107.839 187.219 108.236 187.02C108.632 186.822 108.986 186.547 109.275 186.212C109.565 185.876 109.786 185.487 109.924 185.065C110.063 184.644 110.117 184.2 110.083 183.758C110.049 183.316 109.927 182.885 109.726 182.49L103.758 170.553L109.726 158.617C110.125 157.82 110.19 156.898 109.908 156.052C109.627 155.207 109.021 154.508 108.224 154.11Z" fill="white"/>
</svg>
